<svg width="34" height="30" fill="none" xmlns="http://www.w3.org/2000/svg"><path d="M13.536 29.752a1.063 1.063 0 01-1.063-1.063V19.02c0-.304.13-.593.359-.796l4.479-3.969-7.4 4.302a1.07 1.07 0 01-1.01.033L.589 14.446a1.063 1.063 0 01.09-1.94L32.55.073c.359-.144.77-.075 1.07.178.297.249.435.641.358 1.022L28.436 28.9a1.064 1.064 0 01-1.568.714L17.98 24.55l-3.594 4.778a1.07 1.07 0 01-.85.422zm4.156-7.65c.18 0 .361.045.526.139l8.422 4.796L31.51 2.76 3.683 13.615l5.655 2.819 16.136-9.381a1.058 1.058 0 011.394.296 1.06 1.06 0 01-.156 1.418L14.598 19.499v6.013l2.246-2.985a1.06 1.06 0 01.848-.425z" fill="#F5F7F8"/></svg>