<svg width="36" height="36" fill="none" xmlns="http://www.w3.org/2000/svg"><path d="M18 12.333a2.429 2.429 0 012.429 2.429m-2.428-8.905a8.905 8.905 0 018.904 8.905M18 9.095a5.666 5.666 0 015.667 5.667m-11.333 5.666c2.105 2.105 6.751 4.857 8.905 4.857a4.096 4.096 0 004.047-3.238v-1.619s-1.991-.971-3.238-1.619c-1.247-.647-3.238 1.62-3.238 1.62a10.557 10.557 0 01-4.048-2.43 10.556 10.556 0 01-2.428-4.047s2.267-1.991 1.619-3.238a185.455 185.455 0 01-1.62-3.238h-1.618a4.096 4.096 0 00-3.238 4.048c0 2.153 2.752 6.8 4.857 8.904z" stroke="#F5F7F8" stroke-width="1.421" stroke-linecap="round" stroke-linejoin="round"/><path d="M18 1C9.176 1 1 2.425 1 15.571c0 8.42 3.368 12.03 8.095 13.536v4.225a1.619 1.619 0 002.93 1.101l3.79-4.323H18c8.824 0 17-1.408 17-14.571S26.824 1 18 1z" stroke="#F5F7F8" stroke-width="1.421" stroke-linecap="round" stroke-linejoin="round"/></svg>