<svg width="10" height="10" viewBox="0 0 10 10" fill="none" xmlns="http://www.w3.org/2000/svg">
<path fill-rule="evenodd" clip-rule="evenodd" d="M8.46857 9.51917C8.61365 9.66425 8.84887 9.66425 8.99395 9.51917C9.13903 9.37409 9.13903 9.13887 8.99395 8.9938L5.2535 5.25335L9.40971 1.09714C9.55479 0.952058 9.55479 0.716838 9.40971 0.571759C9.26463 0.42668 9.02941 0.42668 8.88433 0.571759L4.72812 4.72797L0.681681 0.681526C0.536602 0.536447 0.301383 0.536447 0.156304 0.681526C0.0112247 0.826605 0.0112247 1.06183 0.156304 1.2069L4.20275 5.25335L0.572062 8.88403C0.426983 9.02911 0.426984 9.26433 0.572062 9.40941C0.717141 9.55448 0.952361 9.55449 1.09744 9.40941L4.72812 5.77872L8.46857 9.51917Z" fill="#705A66"/>
</svg>
