<svg width="34" height="34" viewBox="0 0 34 34" fill="none" xmlns="http://www.w3.org/2000/svg">
<path d="M33.9048 9.99039C33.8231 8.18014 33.5307 6.94155 33.1158 5.85949C32.6805 4.7434 32.1024 3.79063 31.157 2.85148C30.2116 1.91233 29.2662 1.32026 28.1508 0.891513C27.0694 0.469576 25.8315 0.183747 24.0224 0.102082C22.2064 0.0204163 21.6283 0 17.017 0C12.3989 0 11.8207 0.0204163 10.0116 0.102082C8.20242 0.183747 6.96457 0.476381 5.88316 0.891513C4.76093 1.32706 3.80874 1.90552 2.87016 2.85148C1.93157 3.79744 1.33985 4.7434 0.911364 5.85949C0.496481 6.94155 0.204022 8.18014 0.122406 9.99039C0.0407898 11.8074 0.0203857 12.3859 0.0203857 17C0.0203857 21.6209 0.0407898 22.1994 0.122406 24.0096C0.204022 25.8199 0.496481 27.0584 0.911364 28.1405C1.34665 29.2566 1.92477 30.2094 2.87016 31.1485C3.80874 32.0945 4.76093 32.6797 5.87636 33.1085C6.95777 33.5304 8.19562 33.8163 10.0048 33.8979C11.8207 33.9796 12.3989 34 17.0102 34C21.6283 34 22.2064 33.9796 24.0156 33.8979C25.8247 33.8163 27.0626 33.5236 28.144 33.1085C29.2594 32.6729 30.2116 32.0945 31.1502 31.1485C32.0888 30.2026 32.6805 29.2566 33.109 28.1405C33.5307 27.0584 33.8163 25.8199 33.898 24.0096C33.9796 22.1926 34 21.6141 34 17C34 12.3859 33.9864 11.8006 33.9048 9.99039ZM30.851 23.8735C30.7761 25.534 30.4973 26.4391 30.266 27.0312C29.96 27.8207 29.5859 28.3923 28.9874 28.9912C28.3889 29.5901 27.8243 29.9508 27.0286 30.2706C26.4301 30.502 25.5255 30.781 23.8728 30.8559C22.084 30.9375 21.5467 30.958 17.0034 30.958C12.4601 30.958 11.9228 30.9375 10.134 30.8559C8.47448 30.781 7.5699 30.502 6.97818 30.2706C6.18922 29.9644 5.61791 29.5901 5.01939 28.9912C4.42087 28.3923 4.06039 27.8275 3.74073 27.0312C3.50948 26.4323 3.23063 25.5272 3.15581 23.8735C3.0742 22.0837 3.05379 21.546 3.05379 17C3.05379 12.454 3.0742 11.9163 3.15581 10.1265C3.23063 8.46597 3.50948 7.56085 3.74073 6.96878C4.04679 6.17934 4.42087 5.60769 5.01939 5.00881C5.61791 4.40993 6.18242 4.04924 6.97818 3.72938C7.5767 3.498 8.48128 3.21898 10.134 3.14412C11.9228 3.06245 12.4601 3.04203 17.0034 3.04203C21.5467 3.04203 22.084 3.06245 23.8728 3.14412C25.5323 3.21898 26.4369 3.498 27.0286 3.72938C27.8175 4.03563 28.3889 4.40993 28.9874 5.00881C29.5859 5.60769 29.9464 6.17254 30.266 6.96878C30.4973 7.56765 30.7761 8.47278 30.851 10.1265C30.9326 11.9163 30.953 12.454 30.953 17C30.953 21.546 30.9258 22.0837 30.851 23.8735Z" fill="white"/>
<path d="M17.003 8.26221C12.174 8.26221 8.27002 12.1753 8.27002 17.0004C8.27002 21.8323 12.1808 25.7386 17.003 25.7386C21.8251 25.7386 25.7359 21.8187 25.7359 17.0004C25.7359 12.1685 21.8319 8.26221 17.003 8.26221ZM17.003 22.6693C13.8743 22.6693 11.3374 20.1309 11.3374 17.0004C11.3374 13.8699 13.8743 11.3315 17.003 11.3315C20.1316 11.3315 22.6685 13.8699 22.6685 17.0004C22.6685 20.1309 20.1316 22.6693 17.003 22.6693Z" fill="white"/>
<path d="M26.0764 9.96315C27.2033 9.96315 28.1168 9.04908 28.1168 7.92152C28.1168 6.79395 27.2033 5.87988 26.0764 5.87988C24.9495 5.87988 24.036 6.79395 24.036 7.92152C24.036 9.04908 24.9495 9.96315 26.0764 9.96315Z" fill="white"/>
<path d="M0 17C0 21.6209 0.0204041 22.1994 0.10202 24.0096C0.183637 25.8199 0.476095 27.0584 0.890978 28.1405C1.32627 29.2566 1.90438 30.2094 2.84977 31.1485C3.78836 32.0877 4.74055 32.6797 5.85597 33.1085C6.93739 33.5304 8.17523 33.8163 9.9844 33.8979C11.8004 33.9796 12.3785 34 16.9898 34C21.6079 34 22.186 33.9796 23.9952 33.8979C25.8044 33.8163 27.0422 33.5236 28.1236 33.1085C29.239 32.6729 30.1912 32.0945 31.1298 31.1485C32.0684 30.2094 32.6601 29.2566 33.0886 28.1405C33.5103 27.0584 33.796 25.8199 33.8776 24.0096C33.9592 22.1926 33.9796 21.6141 33.9796 17C33.9796 12.3791 33.9592 11.8006 33.8776 9.99039C33.796 8.18014 33.5035 6.94155 33.0886 5.85949C32.6533 4.7434 32.0752 3.79063 31.1298 2.85148C30.198 1.90552 29.2458 1.32026 28.1304 0.891513C27.049 0.469576 25.8112 0.183747 24.002 0.102082C22.186 0.0204163 21.6079 0 16.9966 0C12.3785 0 11.8004 0.0204163 9.9912 0.102082C8.18204 0.183747 6.94419 0.476381 5.86277 0.891513C4.74735 1.32706 3.79516 1.90552 2.85657 2.85148C1.91798 3.79744 1.32627 4.7434 0.89778 5.85949C0.476095 6.94155 0.183637 8.18014 0.10202 9.99039C0.0204041 11.8006 0 12.3791 0 17ZM3.06741 17C3.06741 12.4608 3.08782 11.9163 3.16943 10.1265C3.24425 8.46597 3.5231 7.56085 3.75435 6.96878C4.06041 6.17934 4.43449 5.60769 5.03301 5.00881C5.63153 4.40993 6.19604 4.04924 6.9918 3.72938C7.59032 3.498 8.4949 3.21898 10.1476 3.14412C11.9364 3.06245 12.4737 3.04203 17.017 3.04203C21.5603 3.04203 22.0976 3.06245 23.8864 3.14412C25.5459 3.21898 26.4505 3.498 27.0422 3.72938C27.8312 4.03563 28.4025 4.40993 29.001 5.00881C29.5995 5.60769 29.96 6.17254 30.2797 6.96878C30.5109 7.56765 30.7898 8.47278 30.8646 10.1265C30.9462 11.9163 30.9666 12.454 30.9666 17C30.9666 21.546 30.9462 22.0837 30.8646 23.8735C30.7898 25.534 30.5109 26.4391 30.2797 27.0312C29.9736 27.8207 29.5995 28.3923 29.001 28.9912C28.4025 29.5901 27.838 29.9508 27.0422 30.2706C26.4437 30.502 25.5391 30.781 23.8864 30.8559C22.0976 30.9375 21.5603 30.958 17.017 30.958C12.4737 30.958 11.9364 30.9375 10.1476 30.8559C8.4881 30.781 7.58352 30.502 6.9918 30.2706C6.20284 29.9644 5.63153 29.5901 5.03301 28.9912C4.43449 28.3923 4.07401 27.8275 3.75435 27.0312C3.5231 26.4323 3.24425 25.5272 3.16943 23.8735C3.08102 22.0837 3.06741 21.5392 3.06741 17Z" fill="white"/>
</svg>
