<svg width="34" height="30" viewBox="0 0 34 30" fill="none" xmlns="http://www.w3.org/2000/svg">
<path d="M13.5357 29.7515C13.4238 29.7515 13.3105 29.7331 13.2 29.6963C12.7651 29.5504 12.4732 29.1452 12.4732 28.689V19.0205C12.4732 18.7159 12.6036 18.4269 12.8316 18.2244L17.311 14.255L9.91055 18.5573C9.60314 18.7358 9.22348 18.7485 8.9019 18.5899L0.587676 14.4462C0.210852 14.2592 -0.0186432 13.8668 0.00118971 13.4475C0.0210226 13.0267 0.284517 12.6584 0.676924 12.5054L32.5512 0.0744527C32.9096 -0.070044 33.3218 -0.000628936 33.6208 0.251532C33.9182 0.50086 34.0557 0.893267 33.9792 1.27434L28.4359 28.8987C28.3679 29.233 28.1455 29.5149 27.8338 29.6566C27.5236 29.7983 27.1623 29.7827 26.8677 29.6127L17.9797 24.5511L14.3857 29.3294C14.1803 29.5999 13.863 29.7515 13.5357 29.7515ZM17.6921 22.1017C17.872 22.1017 18.0534 22.147 18.2177 22.2405L26.6396 27.0373L31.5114 2.76039L3.68302 13.6146L9.33823 16.4337L25.4737 7.05279C25.9454 6.77513 26.5503 6.90688 26.8677 7.34887C27.1892 7.79086 27.1212 8.40426 26.7118 8.76692L14.5982 19.4993V25.5115L16.8436 22.5267C17.0504 22.2504 17.3691 22.1017 17.6921 22.1017Z" fill="#F5F7F8"/>
</svg>
